<svg xmlns="http://www.w3.org/2000/svg" width="32" height="32"><path fill="#1da1f2" d="M31.939 6.092a13.31 13.31 0 0 1-3.767 1.033 6.613 6.613 0 0 0 2.884-3.631 13.55 13.55 0 0 1-4.169 1.579A6.56 6.56 0 0 0 15.539 9.55c0 .52.06 1.02.169 1.499-5.453-.257-10.287-2.876-13.521-6.835a6.432 6.432 0 0 0-.888 3.3 6.56 6.56 0 0 0 2.917 5.461 6.554 6.554 0 0 1-2.971-.821v.081a6.564 6.564 0 0 0 5.261 6.436 6.663 6.663 0 0 1-2.949.113 6.582 6.582 0 0 0 6.139 4.556 13.156 13.156 0 0 1-8.136 2.807c-.52 0-1.039-.031-1.56-.089a18.657 18.657 0 0 0 10.076 2.945c12.072 0 18.665-9.995 18.665-18.648 0-.279 0-.56-.02-.84 1.281-.919 2.4-2.08 3.28-3.397z"/></svg>